<?xml version="1.0" encoding="UTF-8"?>
<svg version="1.1" viewBox="0 0 1600 1600" width="1280" height="1280" xmlns="http://www.w3.org/2000/svg">
<path transform="translate(1024,319)" d="m0 0c1.99 0.36 3.99 0.71 6 1v2c0.72 0.06 1.44 0.12 2.19 0.19 3.69 1.06 5.22 3.02 7.81 5.81 0.65 0.44 1.31 0.88 1.98 1.33 4.85 4.01 6.57 10.9 7.3 17 0.47 6.66 0.38 13.3 0.33 20 0.01 2.27 0.01 4.53 0.02 6.8 0.02 6.21 0 12.4-0.02 18.6-0.02 6.01-0.01 12 0 18 0.01 12.3 0 24.6-0.02 36.9-0.02 12.2-0.04 24.3-0.04 36.5v2.29 9.23c0 28.8-0.03 57.7-0.07 86.5-0.03 25.6-0.05 51.2-0.05 76.9v2.47c-0.01 2.46-0.01 4.93-0.01 7.39v9.83 2.45c0 25.2-0.02 50.5-0.04 75.7 0 8.37-0.01 16.8-0.01 25.1v2.29 2.28c-0.01 14.5-0.02 29-0.05 43.4-0.01 6.62-0.01 13.2-0.01 19.9 0 6.05-0.01 12.1-0.03 18.2v6.58c0 2.97-0.01 5.95-0.02 8.93 0 0.85 0.01 1.71 0.01 2.59-0.06 8.4-1.91 14.2-7.27 20.8h-2c-0.18 0.56-0.36 1.12-0.54 1.7-2.2 3.47-5.35 5.08-8.84 7.18-0.71 0.43-1.43 0.87-2.17 1.33-5.16 3.12-10.4 5.89-15.9 8.51-2.87 1.42-5.5 3.05-8.18 4.79-4.14 2.57-8.42 4.91-12.7 7.28-3.61 2.01-7.18 4.07-10.7 6.21-1.35 0.76-2.7 1.51-4.06 2.25-7.23 4-14.4 8.11-21.4 12.6-2.76 1.77-5.51 2.99-8.56 4.19l-1 2c-2.3 1.28-4.58 2.47-6.94 3.62-0.64 0.33-1.29 0.65-1.96 0.99-4.83 2.39-4.83 2.39-7.1 2.39v2c-0.65 0.35-1.3 0.69-1.97 1.05-16.6 8.81-16.6 8.81-32.6 18.4-2.72 1.7-4.1 2.54-7.38 2.54v2c-0.53 0.29-1.07 0.58-1.62 0.88-4.24 2.34-8.4 4.74-12.5 7.31-3.93 2.39-7.4 3.84-11.9 4.81v2c-1.1 0.6-2.19 1.21-3.32 1.83-1.46 0.81-2.91 1.61-4.37 2.42-0.72 0.4-1.44 0.79-2.18 1.2-6.25 3.48-11 6.47-14.3 13-0.49 0.92-0.97 1.85-1.48 2.81-5.05 10.4-4.04 20.8-0.33 31.8 0.99 0.33 1.98 0.66 3 1 0.3 0.61 0.59 1.23 0.89 1.86 1.46 2.81 3.1 3.69 5.8 5.33 0.98 0.6 1.96 1.19 2.97 1.81 1.1 0.66 2.2 1.32 3.34 2l3.78 2.31c6.29 3.84 12.6 7.49 19.2 10.7 1.21 0.68 2.42 1.36 3.62 2.06 3.08 1.77 6.19 3.38 9.38 4.94v2c1.19 0.33 1.19 0.33 2.41 0.66 4.66 1.74 8.71 4.17 13 6.72 5.16 3.06 10.3 6.02 15.7 8.66 3.22 1.61 6.31 3.41 9.42 5.21 0.63 0.36 1.26 0.73 1.91 1.1 1.53 0.88 3.06 1.77 4.59 2.65v2c0.53 0.15 1.07 0.29 1.62 0.45 5.6 1.68 10.2 4.07 15.1 7.25 7.38 4.25 20.3 3.9 28.3 1.76 4.33-1.66 8.16-4.02 11.8-6.91 2.53-1.79 5.16-3.06 7.95-4.42 4.06-2.05 7.95-4.39 11.9-6.69 14.4-8.44 14.4-8.44 17.4-8.44v-2c0.52-0.29 1.04-0.57 1.58-0.87 2.48-1.35 4.95-2.71 7.42-4.07 1.35-0.74 1.35-0.74 2.73-1.5 4.34-2.38 8.68-4.78 13-7.22 0.72-0.41 1.44-0.82 2.17-1.23 1.34-0.76 2.67-1.53 4-2.29 3.3-1.88 6.56-3.51 10.1-4.82v-2c0.58-0.28 1.17-0.56 1.77-0.85 4.81-2.35 9.49-4.85 14.1-7.59 4.01-2.38 8.05-4.57 12.2-6.62 4.59-2.25 8.97-4.69 13.3-7.36 8.49-5.23 17.1-10.2 25.8-15.2 1.13-0.66 2.27-1.31 3.44-1.99 15.6-8.96 15.6-8.96 20.5-11.6 3.87-2.14 7.63-4.42 11.4-6.75 21-13 21-13 25.5-13l1-3c0.7-0.23 1.4-0.45 2.12-0.69 3.83-1.74 5.73-4.39 8.33-7.63 0.51-0.55 1.02-1.11 1.55-1.68h2c0.12-1.13 0.25-2.27 0.38-3.44 0.2-1.17 0.41-2.35 0.62-3.56l2-1c0.01-1.16 0.02-2.33 0.03-3.53 0.1-11 0.2-22 0.31-32.9 0.05-5.64 0.11-11.3 0.16-16.9 0.05-5.44 0.1-10.9 0.15-16.3 0.02-2.07 0.04-4.15 0.06-6.23 0.02-2.91 0.05-5.82 0.08-8.73 0.01-0.86 0.02-1.71 0.02-2.6 0.04-3.3 0.14-6.41 0.7-9.67 0.7-4.32 0.61-8.56 0.59-12.9 0-0.98-0.01-1.96-0.01-2.97 0-2.12-0.01-4.24-0.01-6.36-0.02-3.35-0.02-6.7-0.03-10.1-0.01-7.11-0.03-14.2-0.05-21.3-0.02-8.26-0.04-16.5-0.06-24.8 0-3.31-0.01-6.62-0.03-9.92 0-2.02 0-4.05-0.01-6.07-0.01-1.38-0.01-1.38-0.01-2.79v-2.57c-0.01-0.73-0.01-1.46-0.01-2.22 0.12-2.13 0.55-3.99 1.12-6.05 0.12-0.74 0.25-1.49 0.38-2.25 0.85-3.74 2.23-7.17 3.62-10.8l2 1c0.33-0.7 0.66-1.4 1-2.12 5.86-8.43 17-13.5 26-17.9 2.91-1.46 5.74-3.06 8.59-4.65 2.49-1.39 5-2.74 7.51-4.09 5.21-2.83 10.3-5.86 15.3-8.93 3.66-2.21 7.34-4.32 11.1-6.32 4.96-2.65 9.61-5.66 14.3-8.74 4.22-2.74 8.51-5.06 13-7.22 2.3-1.09 2.3-1.09 5.09-3.04 4.13-2.75 8.51-4.91 13-7 0.8-0.37 1.59-0.75 2.41-1.13 6.93-2.32 15.9-1.62 22.6 1.13 8.44 4.25 13.4 10 17.2 18.6 2.4 7.6 1.92 15.6 1.93 23.5 0.01 1.44 0.01 2.89 0.02 4.33 0.02 3.96 0.03 7.92 0.04 11.9 0.01 4.28 0.03 8.55 0.05 12.8 0.03 8.36 0.06 16.7 0.08 25.1 0.02 6.79 0.04 13.6 0.06 20.4 0.07 19.3 0.13 38.5 0.18 57.8 0.01 1.55 0.01 1.55 0.01 3.14 0.01 1.04 0.01 2.08 0.01 3.15 0.05 16.9 0.11 33.7 0.17 50.6 0.06 17.3 0.12 34.6 0.17 51.9 0.03 9.72 0.06 19.4 0.1 29.2 0.03 8.27 0.06 16.5 0.07 24.8 0.01 4.22 0.02 8.44 0.04 12.7 0.02 3.86 0.03 7.72 0.04 11.6 0 1.4 0 2.8 0.01 4.2 0.02 1.9 0.02 3.79 0.01 5.69 0.01 1.06 0.01 2.11 0.01 3.2-0.24 2.6-0.24 2.6-2.24 5.6-0.45 1.41-0.86 2.83-1.25 4.25-3.57 10.9-13.5 16.7-23.2 21.7-4.19 2.06-4.19 2.06-6.5 2.06v2c-0.52 0.27-1.04 0.53-1.57 0.81-8.86 4.57-17.6 9.12-26 14.6-4.35 2.78-8.92 5.16-13.5 7.58-1.96 1.06-3.92 2.12-5.88 3.19-0.86 0.47-1.72 0.93-2.61 1.42-2.54 1.41-5.03 2.88-7.51 4.39-23.3 14-23.3 14-35 20.3-3.72 2.02-7.42 4.09-11.1 6.16-0.64 0.36-1.28 0.71-1.93 1.08-3.65 2.05-7.25 4.15-10.8 6.31-5.28 3.19-10.6 6.25-16 9.3-1.82 1.03-3.64 2.07-5.46 3.1-0.79 0.45-1.58 0.9-2.39 1.36-2.47 1.42-4.9 2.88-7.34 4.35-7.33 4.24-14.7 8.4-22.1 12.4-5.67 3.11-11.3 6.35-16.9 9.57-0.61 0.34-1.21 0.69-1.84 1.04-3.76 2.14-7.43 4.37-11.1 6.71-2.09 1.25-2.09 1.25-4.95 2.66-3.26 1.65-6.3 3.51-9.39 5.47-14.6 9.12-14.6 9.12-18.8 9.12v2c-0.72 0.38-1.44 0.76-2.18 1.16-3.34 1.77-6.67 3.56-10 5.34-0.89 0.48-0.89 0.48-1.8 0.97-7.72 4.13-15.3 8.35-22.6 13.2-2.51 1.41-4.58 1.97-7.42 2.36l-1 3c-1.57 1.01-1.57 1.01-3.57 1.91-4.22 1.98-8.26 4.17-12.3 6.47-0.69 0.39-1.39 0.79-2.12 1.19-4.52 2.56-8.99 5.2-13.4 7.89-3.25 1.95-6.53 3.84-9.82 5.73-1.71 0.98-1.71 0.98-3.45 1.98-8.7 4.83-8.7 4.83-11.3 4.83v2c-0.98 0.52-1.96 1.04-2.96 1.57-12.7 6.67-12.7 6.67-25.1 14-7.8 4.94-13.9 7.58-23.2 7.69-1.28 0.03-2.55 0.05-3.87 0.08-7.14-0.61-13-4.44-19.2-7.89-0.77-0.44-1.55-0.87-2.35-1.32-6.21-3.49-12.4-7.08-18.5-10.7-4.88-2.89-9.8-5.7-14.8-8.41-4.39-2.39-8.73-4.8-12.9-7.5-3.71-2.36-7.57-4.3-11.5-6.23-3.92-1.96-7.73-4.11-11.5-6.27v-2c-0.99-0.23-1.98-0.45-3-0.69-3.87-1.08-6.89-2.96-10.2-5.19-1.91-1.29-1.91-1.29-4.8-2.12v-2c-0.86-0.25-1.72-0.5-2.61-0.76-3.6-1.32-6.47-2.99-9.7-5.05-4.32-2.73-8.67-5.35-13.2-7.8-3.34-1.83-6.66-3.71-9.98-5.58-6.13-3.45-12.3-6.89-18.4-10.3-0.77-0.43-1.55-0.87-2.36-1.31-0.72-0.41-1.44-0.81-2.19-1.22-0.64-0.36-1.28-0.71-1.94-1.08-1.2-0.65-2.41-1.28-3.63-1.89v-2c-1.03-0.25-2.06-0.49-3.12-0.75-3.85-1.1-6.58-2.97-9.88-5.25-2.75-1.55-5.53-3.05-8.32-4.54-2.6-1.42-5.13-2.93-7.68-4.46-2.62-1.49-5.25-2.97-7.88-4.44-5.05-2.83-10.1-5.68-15.1-8.56v-2c-0.71-0.1-1.41-0.2-2.14-0.3-3.33-0.81-5.69-2.17-8.61-3.95-4.21-2.54-8.45-4.99-12.8-7.37-5.62-3.11-11.2-6.3-16.8-9.48-6.53-3.7-13.1-7.32-19.7-10.9v-2c-0.76-0.21-1.53-0.41-2.31-0.62-4.06-1.52-7.65-3.43-11.4-5.54-2.42-1.36-4.84-2.68-7.29-3.99-12.5-6.73-20.3-12.9-25-26.8-0.11-2.36-0.16-4.72-0.18-7.08-0.01-0.72-0.02-1.45-0.02-2.2-0.03-2.43-0.04-4.87-0.06-7.31-0.01-1.74-0.03-3.48-0.04-5.23-0.13-15.9-0.2-31.8-0.25-47.7-0.04-11.8-0.11-23.5-0.21-35.3-0.08-8.27-0.11-16.5-0.13-24.8-0.01-4.94-0.03-9.88-0.09-14.8-0.06-4.65-0.07-9.3-0.06-14 0-1.7-0.01-3.41-0.05-5.11-0.23-12.9-0.23-12.9 3-16.7 2.32-1.6 4.47-2.68 7.09-3.71 1.59-0.78 3.17-1.57 4.75-2.38 0.84-0.4 1.69-0.81 2.56-1.23 4.08-2.1 7.9-4.58 11.8-7.01 5.65-3.49 11.4-6.72 17.2-9.99 5.19-2.94 10.3-5.94 15.4-9.03 3.7-2.22 7.49-4.29 11.3-6.36 6.43-3.55 12.8-7.16 19.2-10.8 10.7-6.13 10.7-6.13 15-8.54 5.01-2.83 9.94-5.66 14.6-8.96 4.14-2.85 8.36-4.39 13.2-5.69v-2c1.08-0.52 2.15-1.05 3.26-1.59 5.62-2.81 11.1-5.89 16.6-8.97 1.04-0.58 2.07-1.16 3.14-1.75 1.49-0.84 1.49-0.84 3.01-1.69 0.89-0.51 1.79-1.01 2.72-1.53 2.11-1.34 3.58-2.7 5.32-4.47 2.55-1.35 5.09-2.64 7.69-3.88 4.94-2.36 9.63-4.87 14.2-7.82 3.69-2.33 7.47-4.49 11.2-6.68 0.84-0.48 1.68-0.97 2.54-1.47 4.49-2.58 9-5.11 13.6-7.53 6.23-3.3 12.3-6.86 18.4-10.4 1.47-0.87 1.47-0.87 2.97-1.75 0.92-0.54 1.84-1.09 2.79-1.65 0.83-0.49 1.66-0.98 2.51-1.48 2.15-1.28 2.15-1.28 4.04-3.31h1c0.02-22.9 0.04-45.7 0.05-68.6 0.01-10.6 0.01-21.2 0.03-31.8 0.01-9.25 0.01-18.5 0.01-27.8 0.01-4.9 0.01-9.8 0.02-14.7v-13.8c0-1.69 0.01-3.38 0.01-5.08v-6.93-3.92c-0.17-4.65-0.52-7.46-3.12-11.4-0.62-1.29-1.22-2.58-1.81-3.88-3.04-6.1-6.96-9.39-13.2-12.1-0.85-0.37-1.69-0.74-2.56-1.12-9.6-3.45-17.4-1.62-26.4 2.44-5.63 2.73-10.8 5.75-16 9.31-2.55 1.69-5.2 2.99-7.96 4.3-3.37 1.71-6.53 3.77-9.72 5.8-2.49 1.32-4.61 1.86-7.39 2.27l-1 3c-2.55 1.5-2.55 1.5-5.75 3-3.88 1.84-7.6 3.74-11.2 6-3.97 2.3-7.96 4.52-12 6.69-8.31 4.52-16.4 9.42-24.4 14.4-6.01 3.77-12 7.14-18.4 10.2-5.62 2.88-11 6.23-16.4 9.52-6.01 3.65-12.1 7.17-18.2 10.5-3.65 2.01-7.2 4.17-10.8 6.37-5.83 3.62-11.7 7.05-17.7 10.4-1.85 1.06-3.7 2.15-5.5 3.3-6.31 3.55-12.1 5.05-19.3 5.02h-2.38c-7.34-0.23-12.7-2.56-18.9-6.56-0.69-0.43-1.38-0.86-2.09-1.3-1.27-0.8-2.53-1.6-3.79-2.42-2.63-1.59-5.36-2.93-8.12-4.28-5.7-2.8-11-5.93-16.2-9.5-4.14-2.82-8.23-5.34-12.8-7.5-5.51-2.7-10.8-5.84-16-9-2.73-1.61-5.46-3.21-8.19-4.81-4.85-2.85-9.69-5.71-14.5-8.63-3.36-2.03-6.78-3.83-10.3-5.56-2.35-1.31-4.67-2.65-7-4v-2c-0.56-0.16-1.11-0.32-1.69-0.48-4.88-1.49-8.9-3.32-13.2-6.13-3.36-2.16-6.88-4-10.4-5.9-3.95-2.12-7.86-4.31-11.8-6.49v-2c-0.56-0.15-1.11-0.29-1.69-0.45-5.32-1.56-9.05-3.63-13.4-7.08-2.44-1.84-4.96-3.06-7.71-4.35-2.69-1.35-5.23-2.88-7.8-4.43-16.9-10.4-16.9-10.4-35.8-11.9-7.08 2.4-12.6 4.51-17.7 10.2-0.83 0.72-1.65 1.44-2.5 2.19-7.09 7.97-8.23 15.8-8.12 26.2-0.01 1.32-0.01 2.63-0.02 3.98-0.01 3.63 0 7.25 0.02 10.9 0.01 3.91 0 7.83-0.01 11.8-0.01 6.78-0.01 13.6 0.01 20.3 0.02 9.81 0.01 19.6 0 29.4-0.03 15.9-0.03 31.9-0.02 47.8v2.88c0 1.93 0 3.86 0.01 5.79v2.89 2.9c0.01 10.6 0.01 21.3 0.01 31.9v2.88c0 15.9-0.01 31.8-0.03 47.6-0.01 9.79-0.01 19.6 0 29.4 0.01 6.7 0.01 13.4 0.01 20.1-0.01 3.87-0.01 7.74 0.01 11.6 0.01 4.19 0.01 8.39 0 12.6 0 1.22 0.01 2.44 0.02 3.7-0.04 6.24-0.42 10.7-3.39 16.3-0.39 0.99-0.78 1.98-1.19 3-3.41 5.65-8.83 10.5-15.2 12.6-7.48 1.22-16.3 1.45-23.6-0.57v-2c-0.83-0.06-1.65-0.12-2.5-0.19-3.77-0.87-5.97-2.23-9.14-4.35-3.75-2.32-7.74-4.14-11.7-6.03-2.41-1.3-3.79-2.48-5.64-4.43-1.78-0.89-3.57-1.78-5.37-2.64-3.41-1.76-6.67-3.74-9.94-5.74-6.14-3.72-12.4-7.23-18.7-10.6-1.5-0.83-3-1.66-4.5-2.5-3.34-1.86-6.7-3.69-10.1-5.5-3.2-1.74-6.32-3.52-9.38-5.5-3.22-2.07-6.55-3.76-10-5.44-9.19-4.55-18.8-9.72-23.2-19.6-0.72-2.15-1.36-4.28-1.9-6.49h-1c-0.95-4.79-1.14-9.45-1.13-14.3v-2.5c-0.01-2.76 0-5.53 0-8.29v-5.99c-0.01-5.47-0.01-10.9 0-16.4 0-4.65 0-9.3-0.01-14 0-13.8 0-27.7 0.01-41.5 0.01-7.84 0.01-15.7 0.01-23.5 0.01-67.4 0.13-135 0.53-202 0.02-4.53 0.05-9.05 0.07-13.6 0.05-9.32 0.11-18.6 0.17-28 0.02-3.04 0.04-6.08 0.06-9.11 0.02-4.11 0.05-8.22 0.08-12.3 0.01-1.17 0.02-2.34 0.02-3.54 0.05-5.66 0.26-11.3 0.7-16.9 0.53-6.86 0.61-13.7 0.57-20.6 0-1.95-0.01-3.9-0.01-5.85-0.01-2.07-0.02-4.13-0.03-6.2-0.01-4.32-0.02-8.65-0.03-13-0.03-12.3-0.06-24.6-0.11-36.9-0.02-6.81-0.04-13.6-0.05-20.4 0-4.29-0.02-8.59-0.04-12.9-0.02-3.29-0.02-6.59-0.02-9.88-0.01-1.18-0.02-2.37-0.03-3.59 0-1.09 0-2.18 0.01-3.3-0.01-0.94-0.01-1.89-0.01-2.86 0.26-2.86 1.11-4.99 2.24-7.62v-2c1.31-1.36 2.65-2.68 4-4 0.9-1.14 1.79-2.29 2.69-3.44 5.38-6.22 11-8.71 19.2-9.44 3.51-0.19 5.77-0.24 9.12 0.88 1.07 0.1 2.14 0.21 3.25 0.31 4.42 0.81 6.98 2.3 10.8 4.69v2c0.72 0.1 1.44 0.21 2.19 0.31 3.09 0.76 5.23 1.85 7.81 3.69v2c0.8 0.04 1.61 0.08 2.44 0.12 3.38 0.84 4.8 1.58 7.56 3.54 5.32 3.63 10.9 6.67 16.6 9.72 1.01 0.54 2.02 1.09 3.06 1.65 2.46 1.33 4.92 2.65 7.38 3.97v2c0.58 0.14 1.15 0.29 1.75 0.44 2.08 0.52 4.17 1.04 6.25 1.56v2c1.09 0.43 1.09 0.43 2.21 0.86 8.02 3.28 15.4 7.61 22.8 12.1 13.8 8.4 27.8 16.5 42.1 24.1 4.83 2.62 9.39 5.48 13.9 8.57 2.35 1.54 4.76 2.77 7.31 3.93 5.68 2.76 11 5.92 16.4 9.19 8.65 5.25 17.4 10.3 26.2 15.2 1.56 0.86 1.56 0.86 3.15 1.75 5.23 2.87 10.5 5.62 15.8 8.25v2c1.98 0.66 3.96 1.32 6 2v2c1.08 0.15 1.08 0.15 2.19 0.31 3.09 0.76 5.23 1.85 7.81 3.69v2c0.8 0.04 1.61 0.08 2.44 0.12 4.01 0.99 6.25 2.57 9.59 4.92 3.98 2.62 8.11 4.91 12.3 7.21 1.19 0.65 1.19 0.65 2.39 1.32 3.41 1.87 6.82 3.71 10.3 5.43v2c0.58 0.13 1.15 0.25 1.75 0.38 2.26 0.62 4.16 1.44 6.25 2.5 0.66 0.32 1.32 0.65 2 0.99 2 1.13 2 1.13 3.95 2.61 2.88 2.13 6 3.52 9.22 5.04 2.24 1.17 4.32 2.39 6.45 3.74 5.13 3.25 10.4 6.21 15.7 9.18 0.97 0.54 1.94 1.09 2.94 1.66 6.55 3.69 13.1 7.32 19.8 10.9v2c0.7 0.09 1.39 0.19 2.11 0.29 3.47 0.85 6.06 2.33 9.14 4.15 1.06 0.61 2.11 1.23 3.2 1.87 2.55 1.69 2.55 1.69 3.55 3.69 1.66 0.38 3.32 0.71 5 1l2 1v2c12.6 1.31 22.5 2.03 34-4h2v-2c1.11-0.35 2.23-0.7 3.38-1.06 4.61-1.71 8.23-4.36 12.2-7.24 2.72-1.89 5.46-3.33 8.45-4.74 3.76-1.81 7.36-3.92 11-5.96 1.58-0.88 3.17-1.75 4.75-2.62 3.12-1.74 6.2-3.53 9.25-5.38 1.66-0.95 3.33-1.89 4.99-2.84 2.31-1.33 4.6-2.71 6.89-4.1 3.87-2.33 7.79-4.56 11.8-6.74 2.52-1.41 5-2.86 7.48-4.32 6.09-3.57 12.2-7.04 18.4-10.5 6.94-3.91 13.9-7.84 20.7-11.9 4.03-2.35 8.09-4.66 12.2-6.96 2.61-1.48 5.13-3 7.63-4.66h3l1-3c2.74-1.58 2.74-1.58 6.31-3.25 6.78-3.25 13.2-6.89 19.7-10.8 5.83-3.44 11.7-6.85 17.6-10.1 6.65-3.6 13.1-7.47 19.4-11.6 3.5-2.22 7.12-3.85 11-5.39 2.02-0.87 2.02-0.87 3.36-2.42 2.29-2.22 4.87-3.28 7.74-4.63 4.19-1.67 4.19-1.67 6.88-4.94 1.47-0.83 2.98-1.59 4.5-2.31 8.11-3.94 15.8-8.45 23.6-13 2.01-1.15 4.06-2.23 6.13-3.26 2.73-1.25 2.73-1.25 4.7-2.95 2.82-1.97 5.75-2.61 9.06-3.44v-2c0.89-0.43 1.77-0.87 2.69-1.31 2.86-1.46 5.56-3.04 8.31-4.69 1.7-0.95 3.41-1.88 5.12-2.81 0.96-0.52 1.91-1.04 2.9-1.57 1.99-1.08 3.97-2.16 5.96-3.24 0.96-0.52 1.91-1.03 2.9-1.57 1.29-0.7 1.29-0.7 2.61-1.42 2.54-1.41 5.03-2.88 7.51-4.39 1.17-0.7 2.35-1.39 3.52-2.09 1.29-0.76 2.57-1.52 3.86-2.29 0.63-0.37 1.26-0.74 1.92-1.13 3.23-1.92 6.34-3.91 9.37-6.14 2.63-1.91 5.18-3.37 8.21-4.6 2.78-1.04 2.78-1.04 5.12-2.75 6.27-1.86 10.8-2.28 17 0zm195 471 1 2zm-4 203 1 2z" fill="#0082FB"/>
<path transform="translate(1352 319)" d="m0 0c9.71 0.13 17 4.75 24 11.3 12.3 13.4 9.37 34.2 9.18 50.9-0.02 2.72-0.04 5.43-0.06 8.15-0.04 5.66-0.09 11.3-0.16 17-0.07 6.53-0.12 13-0.15 19.6-0.04 6.32-0.1 12.6-0.16 19l-0.06 8.01c-0.02 3.74-0.06 7.47-0.11 11.2 0 1.64 0 1.64-0.01 3.31-0.16 9.59-1.81 18.1-8.08 25.6-8.03 7.66-18.3 13-28 18.3-3.47 1.97-6.85 4.03-10.2 6.13-3.53 2.19-7.05 4.33-10.7 6.31-4.65 2.54-9.13 5.33-13.6 8.12-7.08 4.38-14.2 8.63-21.4 12.9-1.75 1.06-3.5 2.12-5.25 3.19-1.34 0.83-1.34 0.83-2.72 1.67-0.81 0.5-1.63 1.01-2.47 1.53-2.04 1.1-2.04 1.1-4.04 1.1v2c-10.3 5.42-20 9.29-31.7 6.31-10.6-3.92-17.2-10.2-22.3-20.3-0.88-3.57-1.13-6.89-1.14-10.6-0.01-1.66-0.01-1.66-0.02-3.36v-3.65c-0.01-1.28-0.01-2.56-0.02-3.87-0.01-3.5-0.02-6.99-0.02-10.5 0-2.18-0.01-4.37-0.01-6.56-0.02-6.84-0.03-13.7-0.03-20.5 0-7.89-0.02-15.8-0.05-23.7-0.02-6.11-0.03-12.2-0.03-18.3 0-3.64-0.01-7.29-0.03-10.9-0.02-4.07-0.01-8.14-0.01-12.2-0.01-1.21-0.01-2.41-0.02-3.65 0.03-6.2 0.4-10.7 3.38-16.2 0.4-0.84 0.8-1.68 1.21-2.54 3.49-6.6 6.81-8.87 13.8-11.5v-2c0.77-0.37 1.55-0.75 2.34-1.13 7.35-3.61 14.2-7.52 21-12.1 2.69-1.75 2.69-1.75 5.69-2.75 0.43-0.45 0.87-0.91 1.31-1.37 2.29-2.2 4.84-3.26 7.69-4.63 1.68-0.98 3.34-1.98 5-3 3.7-2.22 7.41-4.43 11.1-6.62 1.04-0.61 2.07-1.22 3.14-1.85 2.74-1.53 2.74-1.53 5.74-2.53 0.43-0.47 0.87-0.95 1.31-1.43 2.3-2.13 4.72-2.71 7.69-3.57v-2c4.64-2.62 9.29-5.23 13.9-7.84 1.79-1 3.57-2.01 5.36-3.02 4.5-2.51 8.72-4.7 13.7-6.14 1.68-1.68 3.7-1.25 6-1.31z" fill="#0082FB"/>
<path transform="translate(413,604)" d="m0 0h5v1h-5v-1z" fill="#000002"/>
<path transform="translate(646,717)" d="m0 0 2 1z" fill="#000002"/>
<path transform="translate(554,680)" d="m0 0 2 1z" fill="#000002"/>
</svg>
